<?xml version="1.0" encoding="UTF-8"?> <svg xmlns="http://www.w3.org/2000/svg" viewBox="0 0 103.33 89.52"><defs><style>.a{fill:none;stroke:#fff;stroke-linecap:round;stroke-linejoin:round;stroke-width:4px;}</style></defs><title>Handshake</title><path class="a" d="M100.85,5S88.36,8.66,84.26,7.71c-2.14-.5-5-4.17-7-4.86a19,19,0,0,0-9.86-.35C59,5.07,40.28,14.92,27.13,22.39c.84,6.26,12.32,10.78,22,7.66,3.23-1,13.79-4.86,13.79-4.86s19.18,18.67,25.4,24.9c5.75,5.74-2.68,16.53-10,9.7,7.28,6.83-4.15,16.47-10.34,7.92,6.19,8.55-4.91,15.31-10.85,8C63.13,83,53.36,90.94,48.38,86c-1.34-1.34-4.72-4.85-4.72-4.85"></path><path class="a" d="M101.33,48.94s-7.23-.77-12.16,2.16"></path><path class="a" d="M2.87,3.81S13.53,7.71,21.13,8.6c8.16,1,31.43.25,31.43.25"></path><path class="a" d="M46.9,70.34c2,2.06,1,6.23-1.15,8.52s-6.59,3.72-8.81,1.68-1.36-6.41.86-8.81C40.17,69.17,44.8,68.16,46.9,70.34Z"></path><path class="a" d="M39.28,62.76c2.06,2.06,1,6.23-1.19,8.52S31.26,75,29,73s-1.41-6.41.9-8.81C32.31,61.59,37.11,60.58,39.28,62.76Z"></path><path class="a" d="M31.29,54.87c2.13,2.19,1,6.6-1.24,9S23,67.84,20.59,65.68s-1.46-6.79.92-9.33C24.06,53.63,29,52.57,31.29,54.87Z"></path><path class="a" d="M23.4,46.83c2,2.07,1,6.23-1.15,8.53s-6.6,3.71-8.81,1.67-1.36-6.41.86-8.81C16.67,45.66,21.3,44.66,23.4,46.83Z"></path><path class="a" d="M2,47.46a38.09,38.09,0,0,0,11.32,2.09"></path></svg> 