<?xml version="1.0" encoding="UTF-8"?> <svg xmlns="http://www.w3.org/2000/svg" viewBox="0 0 516.14 143.71"><defs><style>.e42e7403-ae8f-41d2-9a2e-313b253c1e2e{fill:#fff;}</style></defs><title>oakhouse white wide</title><g id="ea65e6d1-d242-4314-a954-5d9bb3f82f1b" data-name="Layer 2"><g id="a303d2dc-fa09-4d38-b565-5a3af67f637d" data-name="Another one?"><path class="e42e7403-ae8f-41d2-9a2e-313b253c1e2e" d="M266.27,135.34l85.6-.13,85.6.13v.25l-5.35.32-5.35.24-10.7.47-21.4.59c-7.13.26-14.27.21-21.4.31l-21.4.19-21.4-.19-10.7-.1-5.35,0-5.35-.15-21.4-.59-10.7-.48-5.35-.24-5.35-.32Z"></path><path class="e42e7403-ae8f-41d2-9a2e-313b253c1e2e" d="M437.47,29.34l-85.6.13-85.6-.13v-.25l5.35-.31,5.35-.25,10.7-.47,21.4-.59c7.14-.26,14.27-.21,21.4-.31l21.4-.19,21.4.19,10.7.1,5.35,0,5.35.15,21.4.59,10.7.48,5.35.24,5.35.32Z"></path><path class="e42e7403-ae8f-41d2-9a2e-313b253c1e2e" d="M186.47,70.62c0-9,5.93-20.57,21.67-20.57,13.07,0,21.2,7.61,21.2,19.63S221,91.19,207.62,91.19C192.56,91.19,186.47,79.91,186.47,70.62Zm35.53,1c0-11.76-6.77-19.05-15.38-19.05-6,0-12.91,3.36-12.91,16.42,0,10.92,6,19.58,16.11,19.58C213.5,88.57,222,86.78,222,71.62Z"></path><path class="e42e7403-ae8f-41d2-9a2e-313b253c1e2e" d="M243.87,76.76c-.26,0-.36.11-.47.42l-2.83,7.5a10.14,10.14,0,0,0-.79,3.21c0,.94.47,1.62,2.1,1.62h.79c.63,0,.78.11.78.42s-.31.53-.89.53c-1.68,0-3.93-.16-5.56-.16-.58,0-3.46.16-6.19.16-.69,0-1-.11-1-.53s.31-.42.73-.42a14.56,14.56,0,0,0,1.53-.1c2.41-.32,3.41-2.1,4.46-4.73l13.17-33c.63-1.52,1-2.1,1.47-2.1s.78.47,1.31,1.68c1.26,2.89,9.65,24.3,13,32.27,2,4.73,3.52,5.46,4.62,5.72a11.38,11.38,0,0,0,2.21.21c.41,0,.68.11.68.42s-.48.53-2.42.53-6.08,0-10.28-.11c-.95,0-1.21-.1-1.21-.42s.21-.42.74-.47a.86.86,0,0,0,.47-1.21l-4.2-11.12a.51.51,0,0,0-.52-.37Zm10.71-2.62c.26,0,.31-.16.26-.32l-4.72-13c-.16-.47-.37-.63-.58,0l-4.83,12.91c-.05.21,0,.37.21.37Z"></path><path class="e42e7403-ae8f-41d2-9a2e-313b253c1e2e" d="M285.43,69.31c2.36-2.15,8.61-9.18,11-11.91s3.25-4.1,3.25-4.73c0-.41-.1-.68-1.21-.94-.52-.1-.68-.26-.68-.52s.16-.42.68-.42c1.84,0,3,.15,5.3.15s5.57-.15,6.35-.15,1,.15,1,.47-.05.42-.68.47a10,10,0,0,0-2.84.58c-1.83.63-3.09,1.31-5.87,4.2-2.47,2.57-9.24,9.81-10.6,11.28,2.78,3.83,11.85,13.48,14.16,15.69,4.62,4.41,6.14,5.19,7.82,5.67a11.44,11.44,0,0,0,1.89.36c.74.06,1.05.16,1.05.48s-.26.47-1,.47h-4.51c-5.93,0-7.77-.58-10.7-3.62-4-4.15-10-11-14.33-16.43v4.83c0,4.83,0,9,.16,11.23.1,1.47.57,2.62,1.89,2.83a21,21,0,0,0,2.57.21c.42,0,.68.16.68.42s-.42.53-1,.53c-2.94,0-6.24-.16-7.55-.16s-4.52.16-6.61.16c-.69,0-1.05-.16-1.05-.53s.21-.42.84-.42a8.21,8.21,0,0,0,1.88-.21c1.05-.21,1.32-1.36,1.53-2.88.26-2.21.26-6.35.26-11.18V66c0-8,0-9.44-.11-11.12s-.52-2.62-2.25-3a10.36,10.36,0,0,0-2.05-.16c-.58,0-.89-.1-.89-.47s.37-.47,1.15-.47c2.78,0,6.09.15,7.35.15s4.56-.15,6.35-.15c.73,0,1.1.1,1.1.47s-.31.47-.73.47a7.39,7.39,0,0,0-1.47.16c-1.42.26-1.84,1.15-2,3-.1,1.68-.1,3.15-.1,11.12Z"></path><path class="e42e7403-ae8f-41d2-9a2e-313b253c1e2e" d="M347.82,67.47c.16,0,.31-.1.31-.36V66c0-8,0-9.44-.1-11.12s-.53-2.62-2.26-3a10.32,10.32,0,0,0-2-.16c-.58,0-.9-.1-.9-.47s.37-.47,1.11-.47c2.83,0,6.13.15,7.55.15,1.26,0,4.57-.15,6.61-.15.74,0,1.11.1,1.11.47s-.32.47-.95.47a8.82,8.82,0,0,0-1.52.16c-1.42.26-1.84,1.15-1.94,3-.11,1.68-.11,3.15-.11,11.12v9.24c0,4.83,0,9,.26,11.23.16,1.47.48,2.62,2.05,2.83a21.23,21.23,0,0,0,2.68.21c.57,0,.84.16.84.42s-.42.53-1,.53c-3.41,0-6.72-.16-8.19-.16-1.21,0-4.51.16-6.56.16-.73,0-1.1-.16-1.1-.53s.21-.42.84-.42a8.24,8.24,0,0,0,1.89-.21c1-.21,1.31-1.36,1.52-2.88.26-2.21.26-6.35.26-11.18V70.62a.29.29,0,0,0-.31-.31H327.77c-.16,0-.31,0-.31.31v4.62c0,4.83,0,9,.26,11.23.16,1.47.47,2.62,2,2.83a21.07,21.07,0,0,0,2.67.21c.58,0,.84.16.84.42s-.42.53-1,.53c-3.41,0-6.71-.16-8.18-.16-1.21,0-4.52.16-6.61.16-.69,0-1.05-.16-1.05-.53s.21-.42.84-.42a8.21,8.21,0,0,0,1.88-.21c1.05-.21,1.32-1.36,1.53-2.88.26-2.21.26-6.35.26-11.18V66c0-8,0-9.44-.11-11.12s-.52-2.62-2.25-3a10.36,10.36,0,0,0-2.05-.16c-.58,0-.89-.1-.89-.47s.37-.47,1.1-.47c2.83,0,6.14.15,7.56.15,1.26,0,4.56-.15,6.61-.15.73,0,1.1.1,1.1.47s-.47.47-.94.47a13.12,13.12,0,0,0-1.53.11c-1.41.21-1.83,1.2-1.94,3-.1,1.68-.1,3.15-.1,11.12v1.11c0,.26.15.36.31.36Z"></path><path class="e42e7403-ae8f-41d2-9a2e-313b253c1e2e" d="M365.86,70.62c0-9,5.93-20.57,21.68-20.57,13.06,0,21.2,7.61,21.2,19.63S400.34,91.19,387,91.19C372,91.19,365.86,79.91,365.86,70.62Zm35.53,1c0-11.76-6.77-19.05-15.38-19.05-6,0-12.9,3.36-12.9,16.42,0,10.92,6,19.58,16.11,19.58C392.89,88.57,401.39,86.78,401.39,71.62Z"></path><path class="e42e7403-ae8f-41d2-9a2e-313b253c1e2e" d="M425.89,73.35c0,7.61,1.52,10.81,4.09,12.91a9.72,9.72,0,0,0,6.56,2.15,10.26,10.26,0,0,0,7.24-2.83c2.89-2.89,3.05-7.61,3.05-13V66c0-8,0-9.44-.11-11.12s-.52-2.62-2.26-3a9.73,9.73,0,0,0-1.89-.16c-.57,0-.89-.1-.89-.47s.37-.47,1.1-.47c2.68,0,6,.15,6,.15.63,0,3.94-.15,6-.15.74,0,1.1.1,1.1.47s-.31.47-.94.47a7.49,7.49,0,0,0-1.52.16c-1.42.26-1.84,1.15-1.94,3-.11,1.68-.11,3.15-.11,11.12v5.62c0,5.82-.58,12-5,15.79a15.69,15.69,0,0,1-10.92,3.78c-2.78,0-7.82-.16-11.65-3.62-2.67-2.41-4.67-6.3-4.67-13.91V66c0-8,0-9.44-.1-11.12s-.53-2.62-2.26-3a10.36,10.36,0,0,0-2.05-.16c-.57,0-.89-.1-.89-.47s.37-.47,1.16-.47c2.78,0,6.08.15,7.66.15,1.26,0,4.56-.15,6.45-.15.79,0,1.16.1,1.16.47s-.32.47-.84.47a7.42,7.42,0,0,0-1.52.16c-1.42.26-1.84,1.15-1.95,3-.1,1.68-.1,3.15-.1,11.12Z"></path><path class="e42e7403-ae8f-41d2-9a2e-313b253c1e2e" d="M462.15,89.83c-.84-.37-1-.63-1-1.79,0-2.88.21-6,.26-6.87s.21-1.37.63-1.37.53.48.53.9a10.67,10.67,0,0,0,.47,2.67c1.15,3.89,4.25,5.3,7.5,5.3,4.72,0,7-3.2,7-6,0-2.57-.78-5-5.14-8.4L470,72.41c-5.78-4.52-7.77-8.19-7.77-12.44,0-5.77,4.83-9.92,12.12-9.92a28.36,28.36,0,0,1,4.83.42c.89.16,1.57.32,2.15.47s.74.27.74.63c0,.69-.21,2.21-.21,6.3,0,1.15-.16,1.57-.58,1.57s-.53-.31-.53-.94A6.34,6.34,0,0,0,479.41,55a6.64,6.64,0,0,0-5.72-2.57c-3.88,0-6.24,2.25-6.24,5.4,0,2.41,1.2,4.25,5.56,7.56l1.47,1.1c6.35,4.77,8.6,8.39,8.6,13.38A10.58,10.58,0,0,1,478.15,89a15.14,15.14,0,0,1-8.34,2.15A18.25,18.25,0,0,1,462.15,89.83Z"></path><path class="e42e7403-ae8f-41d2-9a2e-313b253c1e2e" d="M494.94,66c0-8,0-9.44-.11-11.12s-.52-2.62-2.25-3a10.36,10.36,0,0,0-2.05-.16c-.58,0-.89-.1-.89-.47s.37-.47,1.15-.47c2.42,0,4.83.15,7.56.15,1.68,0,12.12,0,13.12,0a21.24,21.24,0,0,0,2.26-.31,4.13,4.13,0,0,1,.84-.21c.26,0,.31.21.31.47s-.26,1-.42,3.41c-.05.52-.16,2.83-.26,3.46-.05.27-.16.58-.53.58s-.47-.31-.47-.94a5.24,5.24,0,0,0-.31-1.68c-.37-1-.9-1.58-3.52-1.89-.89-.11-6.4-.21-7.45-.21-.26,0-.37.15-.37.52V67.37c0,.37.05.58.37.58,1.15,0,7.19,0,8.4-.11s2-.26,2.51-.79.58-.68.84-.68.37.11.37.42-.21,1.16-.42,3.83c0,1-.21,3.15-.21,3.52s0,1-.47,1-.47-.57-.47-.84a11.6,11.6,0,0,0-.21-1.52c-.27-1-1-1.83-2.94-2-1-.11-6.19-.16-7.45-.16-.27,0-.32.21-.32.52v4.15c0,1.78-.05,6.61,0,8.13.11,3.62.95,4.41,6.3,4.41a13.29,13.29,0,0,0,4.93-.63c1.37-.63,2-1.73,2.36-3.88.11-.58.21-.79.58-.79s.42.42.42,1a41.56,41.56,0,0,1-.68,5.82c-.37,1.36-.84,1.36-2.84,1.36-4.67,0-9.28-.31-14.53-.31-2.1,0-4.25.16-6.61.16-.69,0-1.05-.16-1.05-.53s.21-.42.84-.42a8.21,8.21,0,0,0,1.88-.21c1.05-.21,1.32-1.36,1.53-2.88.26-2.21.26-6.35.26-11.18Z"></path><path class="e42e7403-ae8f-41d2-9a2e-313b253c1e2e" d="M190.79,109.52a.18.18,0,0,0-.17.14l-1,3.07a3.53,3.53,0,0,0-.24,1.16c0,.35.33.5.62.5h.16c.17,0,.22,0,.22.11s-.15.13-.31.13c-.42,0-1.11,0-1.3,0s-1.14,0-2,0c-.22,0-.33,0-.33-.13s.09-.11.24-.11l.42,0c.8-.11,1.14-.77,1.46-1.63L192.49,102c.21-.57.28-.67.38-.67s.18.08.38.62,3,7.82,4,10.45c.63,1.55,1.13,1.82,1.49,1.93a2.51,2.51,0,0,0,.68.1c.1,0,.19,0,.19.11s-.16.13-.35.13-1.52,0-2.72,0c-.33,0-.52,0-.52-.12a.12.12,0,0,1,.12-.12c.11,0,.21-.19.11-.47l-1.61-4.27a.17.17,0,0,0-.16-.1Zm3.5-.62c.09,0,.09-.05.07-.12l-1.64-4.68c-.09-.26-.18-.26-.26,0l-1.53,4.68c0,.08,0,.12,0,.12Z"></path><path class="e42e7403-ae8f-41d2-9a2e-313b253c1e2e" d="M203,106.56c0-2.71,0-3.19,0-3.75s-.18-.86-.75-1a2.81,2.81,0,0,0-.59-.06c-.07,0-.14,0-.14-.1s.09-.14.28-.14c.78,0,1.87,0,2,0s1.51,0,2,0a5.34,5.34,0,0,1,3.18.76,3.05,3.05,0,0,1,1.19,2.36,5.34,5.34,0,0,1-2.1,4c1.43,1.82,2.6,3.37,3.61,4.44a3.6,3.6,0,0,0,2.11,1.25,4.39,4.39,0,0,0,.68,0c.09,0,.16,0,.16.11s-.11.13-.42.13h-1.23a3.55,3.55,0,0,1-1.85-.32,8.9,8.9,0,0,1-2.34-2.55c-.73-1-1.55-2.12-1.89-2.57a.29.29,0,0,0-.23-.1l-2.13,0c-.09,0-.12.06-.12.14v.42c0,1.66,0,3,.08,3.76.06.5.16.88.68.95a6.22,6.22,0,0,0,.78.07c.1,0,.14,0,.14.11s-.09.13-.28.13c-.95,0-2,0-2.13,0s-1.11,0-1.63,0c-.19,0-.28,0-.28-.13s0-.11.14-.11a2.32,2.32,0,0,0,.52-.07c.35-.07.43-.45.5-.95.09-.73.09-2.1.09-3.76Zm1.39,1.51a.21.21,0,0,0,.12.2,4.7,4.7,0,0,0,1.82.28,2.24,2.24,0,0,0,1.3-.33,3.15,3.15,0,0,0,1.06-2.67c0-2.17-1.15-3.47-3-3.47a5.21,5.21,0,0,0-1.16.11.2.2,0,0,0-.14.21Z"></path><path class="e42e7403-ae8f-41d2-9a2e-313b253c1e2e" d="M216.92,106.56c0-2.71,0-3.19,0-3.75s-.18-.86-.75-1a2.67,2.67,0,0,0-.5-.06c-.16,0-.23,0-.23-.1s.09-.14.28-.14c.78,0,1.87,0,2,0,.42,0,1.09,0,1.89,0,2.84,0,3.47,1.73,3.47,2.6a4.39,4.39,0,0,1-1.63,3.12,4,4,0,0,1,3,3.66c0,1.85-1.45,3.78-4.42,3.78l-1.24-.06-1.06,0c-.56,0-1.09,0-1.7,0-.19,0-.28,0-.28-.12s0-.12.26-.12a2.18,2.18,0,0,0,.42,0c.35-.07.42-.47.48-1,.09-.73.09-2.1.09-3.76Zm1.39.38c0,.12,0,.15.12.19a5.81,5.81,0,0,0,1.06.07c1,0,1.21,0,1.57-.45a2.66,2.66,0,0,0,.63-1.75c0-1.44-.64-3-2.34-3a3.73,3.73,0,0,0-.83.08c-.16,0-.21.09-.21.19Zm0,1.84c0,1.33,0,3.48,0,3.74.06.85.06,1.09.59,1.35a4,4,0,0,0,1.53.26,2.31,2.31,0,0,0,2.44-2.46,4.14,4.14,0,0,0-1.68-3.47,2.92,2.92,0,0,0-1.44-.5c-.22,0-1.09,0-1.35,0-.07,0-.1,0-.1.12Z"></path><path class="e42e7403-ae8f-41d2-9a2e-313b253c1e2e" d="M227.68,108.07a6.71,6.71,0,0,1,6.83-6.78c3.9,0,6.81,2.46,6.81,6.5a6.8,6.8,0,0,1-6.91,7.09C229.66,114.88,227.68,111.19,227.68,108.07Zm12,.2c0-4.16-2.53-6.39-5.27-6.39-2.9,0-5.06,1.9-5.06,5.7,0,4,2.42,6.64,5.54,6.64C236.43,114.22,239.66,113.32,239.66,108.27Z"></path><path class="e42e7403-ae8f-41d2-9a2e-313b253c1e2e" d="M246.12,106.56c0-2.71,0-3.19,0-3.75s-.17-.86-.74-1a2.88,2.88,0,0,0-.59-.06c-.07,0-.14,0-.14-.1s.09-.14.28-.14c.78,0,1.87,0,2,0s1.5,0,2,0a5.31,5.31,0,0,1,3.17.76,3,3,0,0,1,1.2,2.36,5.34,5.34,0,0,1-2.1,4c1.42,1.82,2.6,3.37,3.61,4.44a3.57,3.57,0,0,0,2.11,1.25,4.32,4.32,0,0,0,.68,0c.09,0,.15,0,.15.11s-.1.13-.41.13h-1.23a3.59,3.59,0,0,1-1.86-.32,9.19,9.19,0,0,1-2.34-2.55c-.72-1-1.54-2.12-1.89-2.57a.27.27,0,0,0-.22-.1l-2.13,0c-.09,0-.12.06-.12.14v.42c0,1.66,0,3,.08,3.76,0,.5.16.88.68.95a6.22,6.22,0,0,0,.78.07c.1,0,.14,0,.14.11s-.09.13-.28.13c-.95,0-2,0-2.13,0s-1.11,0-1.63,0c-.19,0-.28,0-.28-.13s0-.11.14-.11a2.4,2.4,0,0,0,.52-.07c.35-.07.43-.45.5-.95.09-.73.09-2.1.09-3.76Zm1.39,1.51a.21.21,0,0,0,.12.2,4.66,4.66,0,0,0,1.82.28,2.24,2.24,0,0,0,1.3-.33,3.17,3.17,0,0,0,1.05-2.67c0-2.17-1.14-3.47-3-3.47a5.33,5.33,0,0,0-1.17.11.2.2,0,0,0-.13.21Z"></path><path class="e42e7403-ae8f-41d2-9a2e-313b253c1e2e" d="M260.05,106.56c0-2.71,0-3.19,0-3.75s-.2-.88-.58-1a2.49,2.49,0,0,0-.54-.07c-.07,0-.14,0-.14-.1s.09-.14.28-.14c.57,0,1.66,0,1.75,0s1.18,0,1.7,0c.19,0,.27,0,.27.14s-.07.1-.14.1a2.26,2.26,0,0,0-.43.06c-.47.08-.61.38-.64,1s0,1,0,3.75v3c0,1.66,0,3,.08,3.76.05.5.16.88.68.95a6.15,6.15,0,0,0,.71.07c.15,0,.21,0,.21.11s-.07.13-.26.13c-1,0-2.07,0-2.15,0s-1.18,0-1.7,0c-.19,0-.28,0-.28-.13s0-.11.19-.11a2.68,2.68,0,0,0,.45,0c.35-.07.45-.47.52-1,.09-.73.09-2.1.09-3.76Z"></path><path class="e42e7403-ae8f-41d2-9a2e-313b253c1e2e" d="M268.4,113a6.66,6.66,0,0,1-2.1-5.14,6.94,6.94,0,0,1,1.94-4.73,7,7,0,0,1,5.29-1.85,14.31,14.31,0,0,1,2.51.21c.66.12,1.2.17,1.84.26.12,0,.16.08.16.19s-.05.34-.09,1,0,1.52-.05,1.78,0,.37-.16.37-.13-.12-.13-.37a2.43,2.43,0,0,0-.73-1.77,5.78,5.78,0,0,0-3.47-1c-2.3,0-3.38.67-4,1.26a5.84,5.84,0,0,0-1.56,4.53,6.26,6.26,0,0,0,6.26,6.34,4,4,0,0,0,3-.87,3.3,3.3,0,0,0,.64-1.45c0-.19.07-.26.17-.26s.12.12.12.26a18.66,18.66,0,0,1-.38,2.22c-.1.33-.14.36-.45.5a9.94,9.94,0,0,1-3.12.4A8,8,0,0,1,268.4,113Z"></path><path class="e42e7403-ae8f-41d2-9a2e-313b253c1e2e" d="M283.84,109c0,2.5.55,3.57,1.3,4.29a3.42,3.42,0,0,0,2.62,1,3.65,3.65,0,0,0,2.72-1.25,6.78,6.78,0,0,0,1-4.25v-2.16c0-2.71,0-3.19,0-3.75s-.18-.86-.75-1a2.81,2.81,0,0,0-.59-.06c-.07,0-.13,0-.13-.1s.08-.14.27-.14c.78,0,1.74,0,1.84,0s.94,0,1.46,0c.19,0,.27,0,.27.14s-.07.1-.14.1a2.26,2.26,0,0,0-.43.06c-.47.1-.61.38-.64,1s0,1,0,3.75v1.85c0,1.87-.2,4-1.59,5.18a5.09,5.09,0,0,1-3.57,1.29,5.33,5.33,0,0,1-3.57-1.23c-.85-.82-1.51-2-1.51-4.56v-2.53c0-2.71,0-3.19,0-3.75s-.18-.86-.75-1a2.81,2.81,0,0,0-.59-.06c-.07,0-.14,0-.14-.1s.09-.14.28-.14c.78,0,1.84,0,2,0s1.2,0,1.72,0c.19,0,.28,0,.28.14s-.07.1-.14.1a2.16,2.16,0,0,0-.43.06c-.47.06-.61.38-.65,1s0,1,0,3.75Z"></path><path class="e42e7403-ae8f-41d2-9a2e-313b253c1e2e" d="M300,109.64c0,2.55.07,3.66.38,4s.73.4,2.08.4c.92,0,1.68,0,2.1-.52a2.47,2.47,0,0,0,.45-1c0-.14.05-.22.16-.22s.1.06.1.26a10.84,10.84,0,0,1-.26,1.73c-.12.4-.17.47-1.09.47-1.49,0-3-.11-4.65-.11-.54,0-1.06,0-1.7,0-.19,0-.27,0-.27-.13s0-.11.13-.11a2.25,2.25,0,0,0,.52-.07c.35-.07.44-.45.51-.95.08-.73.08-2.1.08-3.76v-3c0-2.71,0-3.19,0-3.75s-.17-.86-.75-1a2.74,2.74,0,0,0-.59-.06c-.06,0-.13,0-.13-.1s.08-.14.27-.14c.78,0,1.88,0,2,0s1.35,0,1.87,0c.19,0,.28,0,.28.14s-.07.1-.14.1a3.56,3.56,0,0,0-.57.06c-.5.08-.64.38-.68,1s0,1,0,3.75Z"></path><path class="e42e7403-ae8f-41d2-9a2e-313b253c1e2e" d="M312.17,109.61c0,1.66,0,3,.09,3.76.05.5.15.88.67.95a6.56,6.56,0,0,0,.78.07c.11,0,.14,0,.14.11s-.09.13-.28.13c-.95,0-2,0-2.13,0s-1.18,0-1.7,0c-.19,0-.27,0-.27-.13s0-.11.13-.11a2.25,2.25,0,0,0,.52-.07c.35-.07.44-.45.51-.95.08-.73.08-2.1.08-3.76v-7.33c-.85,0-1.71,0-2.56,0-1.08,0-1.49.14-1.77.56a2.75,2.75,0,0,0-.29.53c-.06.14-.11.18-.18.18s-.08-.06-.08-.16.34-1.66.38-1.8.1-.33.17-.33a3.58,3.58,0,0,0,.76.21c.51,0,1.16.08,1.37.08H315a7.16,7.16,0,0,0,1.23-.08c.26,0,.42-.09.49-.09s.09.1.09.21c0,.52-.06,1.71-.06,1.9s-.05.23-.12.23-.12,0-.14-.3c0-.07,0-.12,0-.19-.06-.52-.47-.91-2.14-1-.72,0-1.45,0-2.18,0Z"></path><path class="e42e7403-ae8f-41d2-9a2e-313b253c1e2e" d="M322.24,109c0,2.5.55,3.57,1.3,4.29a3.41,3.41,0,0,0,2.61,1,3.61,3.61,0,0,0,2.72-1.25,6.72,6.72,0,0,0,1-4.25v-2.16c0-2.71,0-3.19,0-3.75s-.18-.86-.75-1a2.81,2.81,0,0,0-.59-.06c-.07,0-.14,0-.14-.1s.09-.14.28-.14c.78,0,1.73,0,1.84,0s.93,0,1.45,0c.19,0,.28,0,.28.14s-.07.1-.14.1a2.26,2.26,0,0,0-.43.06c-.47.1-.61.38-.64,1s0,1,0,3.75v1.85c0,1.87-.21,4-1.59,5.18a5.09,5.09,0,0,1-3.57,1.29,5.33,5.33,0,0,1-3.57-1.23c-.85-.82-1.51-2-1.51-4.56v-2.53c0-2.71,0-3.19,0-3.75s-.17-.86-.74-1a2.81,2.81,0,0,0-.59-.06c-.07,0-.14,0-.14-.1s.09-.14.28-.14c.78,0,1.83,0,2,0s1.2,0,1.72,0c.19,0,.27,0,.27.14s-.07.1-.13.1a2.24,2.24,0,0,0-.44.06c-.47.06-.6.38-.64,1s0,1,0,3.75Z"></path><path class="e42e7403-ae8f-41d2-9a2e-313b253c1e2e" d="M337,106.56c0-2.71,0-3.19,0-3.75s-.18-.86-.75-1a2.81,2.81,0,0,0-.59-.06c-.07,0-.14,0-.14-.1s.09-.14.28-.14c.78,0,1.87,0,2,0s1.51,0,2.05,0a5.33,5.33,0,0,1,3.17.76,3.05,3.05,0,0,1,1.19,2.36,5.32,5.32,0,0,1-2.09,4c1.42,1.82,2.6,3.37,3.6,4.44a3.59,3.59,0,0,0,2.12,1.25,4.29,4.29,0,0,0,.67,0c.09,0,.16,0,.16.11s-.11.13-.42.13h-1.23a3.55,3.55,0,0,1-1.85-.32,8.9,8.9,0,0,1-2.34-2.55c-.73-1-1.55-2.12-1.89-2.57a.28.28,0,0,0-.23-.1l-2.13,0c-.09,0-.12.06-.12.14v.42c0,1.66,0,3,.08,3.76.06.5.16.88.68.95a6.38,6.38,0,0,0,.78.07c.11,0,.14,0,.14.11s-.09.13-.28.13c-.95,0-2,0-2.13,0s-1.11,0-1.63,0c-.19,0-.28,0-.28-.13s0-.11.14-.11a2.25,2.25,0,0,0,.52-.07c.35-.07.44-.45.51-.95.08-.73.08-2.1.08-3.76Zm1.39,1.51a.21.21,0,0,0,.12.2,4.7,4.7,0,0,0,1.82.28,2.22,2.22,0,0,0,1.3-.33,3.15,3.15,0,0,0,1.06-2.67c0-2.17-1.15-3.47-3-3.47a5.21,5.21,0,0,0-1.16.11.2.2,0,0,0-.14.21Z"></path><path class="e42e7403-ae8f-41d2-9a2e-313b253c1e2e" d="M352.06,109.52c-.09,0-.14,0-.18.14l-1,3.07a3.81,3.81,0,0,0-.24,1.16c0,.35.33.5.62.5h.16c.17,0,.23,0,.23.11s-.16.13-.32.13c-.41,0-1.11,0-1.3,0s-1.14,0-2,0c-.22,0-.32,0-.32-.13s.08-.11.24-.11l.41,0c.8-.11,1.15-.77,1.46-1.63L353.76,102c.2-.57.27-.67.38-.67s.17.08.38.62,3,7.82,4,10.45c.62,1.55,1.12,1.82,1.49,1.93a2.45,2.45,0,0,0,.67.1c.11,0,.19,0,.19.11s-.15.13-.34.13-1.53,0-2.72,0c-.33,0-.52,0-.52-.12a.12.12,0,0,1,.12-.12c.1,0,.2-.19.1-.47l-1.61-4.27a.17.17,0,0,0-.16-.1Zm3.5-.62c.08,0,.08-.05.07-.12L354,104.1c-.09-.26-.17-.26-.26,0l-1.53,4.68c0,.08,0,.12.06.12Z"></path><path class="e42e7403-ae8f-41d2-9a2e-313b253c1e2e" d="M365.71,109.64c0,2.55.07,3.66.38,4s.73.4,2.08.4c.92,0,1.68,0,2.1-.52a2.47,2.47,0,0,0,.45-1c0-.14,0-.22.16-.22s.1.06.1.26a10.84,10.84,0,0,1-.26,1.73c-.12.4-.17.47-1.09.47-1.49,0-3-.11-4.65-.11-.54,0-1.06,0-1.7,0-.19,0-.27,0-.27-.13s0-.11.13-.11a2.25,2.25,0,0,0,.52-.07c.35-.07.44-.45.51-.95.08-.73.08-2.1.08-3.76v-3c0-2.71,0-3.19,0-3.75s-.17-.86-.75-1a2.74,2.74,0,0,0-.59-.06c-.06,0-.13,0-.13-.1s.08-.14.27-.14c.78,0,1.88,0,2,0s1.35,0,1.87,0c.19,0,.28,0,.28.14s-.07.1-.14.1a3.56,3.56,0,0,0-.57.06c-.5.08-.64.38-.68,1s0,1,0,3.75Z"></path><path class="e42e7403-ae8f-41d2-9a2e-313b253c1e2e" d="M380.77,114.41c-.25-.12-.26-.19-.26-.66,0-.87.06-1.56.08-1.84s.05-.27.14-.27.12,0,.12.19a3.18,3.18,0,0,0,0,.64,2.37,2.37,0,0,0,2.57,1.77,2.32,2.32,0,0,0,2.48-2.31c0-1.2-.5-1.89-2-3.12l-.77-.64c-1.84-1.51-2.26-2.58-2.26-3.76,0-1.86,1.39-3.12,3.59-3.12a6.89,6.89,0,0,1,1.61.17,2.88,2.88,0,0,0,.61.09c.14,0,.17,0,.17.12s-.07.66-.07,1.84c0,.27,0,.4-.12.4s-.12-.09-.14-.23a2.93,2.93,0,0,0-.22-.87c-.11-.19-.58-.92-2.17-.92a2,2,0,0,0-2.13,2c0,1,.45,1.61,2.11,2.91l.49.38c2,1.61,2.53,2.69,2.53,4.07a3.61,3.61,0,0,1-1.47,2.88,4.59,4.59,0,0,1-2.62.73A5.19,5.19,0,0,1,380.77,114.41Z"></path><path class="e42e7403-ae8f-41d2-9a2e-313b253c1e2e" d="M392.32,106.56c0-2.71,0-3.19,0-3.75s-.18-.86-.75-1a3.43,3.43,0,0,0-.5-.06c-.12,0-.22,0-.22-.1s.08-.14.27-.14c.4,0,.87,0,2,0h4a3.09,3.09,0,0,0,.8-.11.44.44,0,0,1,.19-.07c.05,0,.07.07.07.16a6.34,6.34,0,0,0-.14.81c0,.26,0,.59-.07,1,0,.18-.07.3-.14.3s-.14-.09-.14-.23a1.82,1.82,0,0,0-.08-.57c-.13-.4-.49-.57-1.25-.64-.3,0-2.19-.05-2.38-.05s-.1.05-.1.17v4.78c0,.13,0,.18.1.18.23,0,2.36,0,2.76,0s.69-.08.87-.29.14-.18.2-.18.09,0,.09.14-.09.4-.14,1-.05.94-.07,1.18,0,.26-.12.26-.12-.14-.12-.27a1.66,1.66,0,0,0-.07-.49c-.07-.26-.28-.5-.9-.57-.47,0-2.19-.09-2.48-.09a.11.11,0,0,0-.12.12v1.53c0,.59,0,2.6,0,3,0,.71.14,1.09.57,1.27a4.28,4.28,0,0,0,1.44.15,5.71,5.71,0,0,0,1.56-.15c.55-.18.75-.54.88-1.29,0-.19.07-.26.16-.26s.1.14.1.26a16.09,16.09,0,0,1-.22,1.69c-.12.45-.26.45-.94.45-1.28,0-1.85,0-2.53-.06s-1.49,0-2.16,0c-.42,0-.84.07-1.29,0-.19,0-.27,0-.27-.13s.08-.09.19-.11a3.14,3.14,0,0,0,.39,0c.37-.09.59-.33.63-1.63,0-.67,0-1.56,0-3.1Z"></path><path class="e42e7403-ae8f-41d2-9a2e-313b253c1e2e" d="M403.38,106.56c0-2.71,0-3.19,0-3.75s-.17-.86-.74-1a2.88,2.88,0,0,0-.59-.06c-.07,0-.14,0-.14-.1s.09-.14.28-.14c.78,0,1.87,0,2,0s1.5,0,2,0a5.33,5.33,0,0,1,3.17.76,3,3,0,0,1,1.2,2.36,5.34,5.34,0,0,1-2.1,4c1.42,1.82,2.6,3.37,3.61,4.44a3.57,3.57,0,0,0,2.11,1.25,4.32,4.32,0,0,0,.68,0c.08,0,.15,0,.15.11s-.1.13-.41.13h-1.23a3.59,3.59,0,0,1-1.86-.32,9.19,9.19,0,0,1-2.34-2.55c-.73-1-1.54-2.12-1.89-2.57a.27.27,0,0,0-.22-.1l-2.13,0c-.09,0-.12.06-.12.14v.42c0,1.66,0,3,.08,3.76,0,.5.16.88.68.95a6.22,6.22,0,0,0,.78.07c.1,0,.14,0,.14.11s-.09.13-.28.13c-.95,0-2.05,0-2.13,0s-1.11,0-1.63,0c-.19,0-.28,0-.28-.13s0-.11.14-.11a2.4,2.4,0,0,0,.52-.07c.35-.07.43-.45.5-.95.09-.73.09-2.1.09-3.76Zm1.39,1.51a.21.21,0,0,0,.12.2,4.66,4.66,0,0,0,1.82.28,2.24,2.24,0,0,0,1.3-.33,3.17,3.17,0,0,0,1.05-2.67c0-2.17-1.14-3.47-3-3.47a5.33,5.33,0,0,0-1.17.11.2.2,0,0,0-.13.21Z"></path><path class="e42e7403-ae8f-41d2-9a2e-313b253c1e2e" d="M415.07,103.18c-.38-1-.64-1.16-1.25-1.34a2.59,2.59,0,0,0-.65-.07c-.11,0-.14,0-.14-.12s.17-.12.45-.12c.83,0,1.77,0,2,0s.92,0,1.58,0c.31,0,.47,0,.47.12s-.05.12-.17.12a2,2,0,0,0-.66.09.35.35,0,0,0-.23.35,5.39,5.39,0,0,0,.35,1.11l3.53,9.2c1-2.32,3.33-8.37,3.71-9.62a2.38,2.38,0,0,0,.16-.66.43.43,0,0,0-.22-.4,2.19,2.19,0,0,0-.66-.07c-.11,0-.19,0-.19-.1s.1-.14.38-.14c.69,0,1.49,0,1.7,0s.85,0,1.35,0c.19,0,.29,0,.29.12s-.07.12-.21.12a1.56,1.56,0,0,0-.83.21c-.22.16-.48.45-.95,1.63-.19.49-1.06,2.57-1.94,4.7-1.06,2.53-1.84,4.4-2.24,5.25-.48,1-.55,1.32-.73,1.32s-.29-.25-.62-1.08Z"></path><path class="e42e7403-ae8f-41d2-9a2e-313b253c1e2e" d="M430.27,106.56c0-2.71,0-3.19,0-3.75s-.2-.88-.58-1a2.49,2.49,0,0,0-.54-.07c-.07,0-.14,0-.14-.1s.09-.14.28-.14c.57,0,1.66,0,1.75,0s1.18,0,1.7,0c.19,0,.27,0,.27.14s-.07.1-.13.1a2.24,2.24,0,0,0-.44.06c-.47.08-.61.38-.64,1s0,1,0,3.75v3c0,1.66,0,3,.08,3.76.05.5.16.88.68.95a6.37,6.37,0,0,0,.71.07c.16,0,.21,0,.21.11s-.07.13-.26.13c-1,0-2.07,0-2.15,0s-1.18,0-1.7,0c-.19,0-.28,0-.28-.13s0-.11.19-.11a2.68,2.68,0,0,0,.45,0c.35-.07.45-.47.52-1,.09-.73.09-2.1.09-3.76Z"></path><path class="e42e7403-ae8f-41d2-9a2e-313b253c1e2e" d="M438.62,113a6.66,6.66,0,0,1-2.1-5.14,6.91,6.91,0,0,1,2-4.73,7,7,0,0,1,5.28-1.85,14.49,14.49,0,0,1,2.52.21c.65.12,1.19.17,1.83.26.12,0,.16.08.16.19s-.05.34-.09,1,0,1.52-.05,1.78-.05.37-.16.37-.13-.12-.13-.37a2.43,2.43,0,0,0-.73-1.77,5.78,5.78,0,0,0-3.47-1c-2.3,0-3.38.67-4,1.26a5.84,5.84,0,0,0-1.56,4.53,6.26,6.26,0,0,0,6.26,6.34,4,4,0,0,0,3-.87,3.3,3.3,0,0,0,.64-1.45c0-.19.07-.26.17-.26s.12.12.12.26a16.79,16.79,0,0,1-.38,2.22c-.1.33-.14.36-.45.5a9.94,9.94,0,0,1-3.12.4A8,8,0,0,1,438.62,113Z"></path><path class="e42e7403-ae8f-41d2-9a2e-313b253c1e2e" d="M453,106.56c0-2.71,0-3.19,0-3.75s-.17-.86-.74-1a3.61,3.61,0,0,0-.5-.06c-.13,0-.23,0-.23-.1s.09-.14.28-.14c.4,0,.86,0,2,0h4a2.91,2.91,0,0,0,.79-.11c.11,0,.14-.07.19-.07s.07.07.07.16-.1.33-.14.81c0,.26,0,.59-.06,1,0,.18-.08.3-.14.3s-.14-.09-.14-.23a1.79,1.79,0,0,0-.09-.57c-.12-.4-.48-.57-1.25-.64-.29,0-2.18-.05-2.37-.05s-.11.05-.11.17v4.78c0,.13,0,.18.11.18s2.36,0,2.75,0,.7-.08.87-.29.14-.18.21-.18.08,0,.08.14-.08.4-.13,1-.06.94-.07,1.18-.05.26-.12.26-.13-.14-.13-.27a1.65,1.65,0,0,0-.06-.49c-.07-.26-.28-.5-.91-.57-.46,0-2.18-.09-2.47-.09a.11.11,0,0,0-.13.12v1.53c0,.59,0,2.6,0,3,0,.71.14,1.09.58,1.27a4.24,4.24,0,0,0,1.44.15,5.63,5.63,0,0,0,1.55-.15c.56-.18.75-.54.89-1.29,0-.19.07-.26.15-.26s.11.14.11.26a16.5,16.5,0,0,1-.23,1.69c-.12.45-.26.45-.93.45-1.29,0-1.86,0-2.53-.06s-1.49,0-2.17,0c-.42,0-.83.07-1.28,0-.19,0-.28,0-.28-.13s.09-.09.19-.11a3.34,3.34,0,0,0,.4,0c.36-.09.59-.33.62-1.63,0-.67,0-1.56,0-3.1Z"></path><path class="e42e7403-ae8f-41d2-9a2e-313b253c1e2e" d="M463.29,114.41c-.24-.12-.26-.19-.26-.66,0-.87.07-1.56.09-1.84s.05-.27.14-.27.12,0,.12.19a3.18,3.18,0,0,0,.05.64,2.37,2.37,0,0,0,2.57,1.77,2.32,2.32,0,0,0,2.48-2.31c0-1.2-.51-1.89-2-3.12l-.78-.64c-1.83-1.51-2.25-2.58-2.25-3.76,0-1.86,1.39-3.12,3.59-3.12a7,7,0,0,1,1.61.17,2.88,2.88,0,0,0,.61.09c.14,0,.17,0,.17.12s-.07.66-.07,1.84c0,.27,0,.4-.12.4s-.12-.09-.14-.23a3.27,3.27,0,0,0-.22-.87c-.11-.19-.58-.92-2.17-.92a2,2,0,0,0-2.13,2c0,1,.45,1.61,2.11,2.91l.49.38c2,1.61,2.53,2.69,2.53,4.07a3.6,3.6,0,0,1-1.48,2.88,4.54,4.54,0,0,1-2.61.73A5.23,5.23,0,0,1,463.29,114.41Z"></path><path class="e42e7403-ae8f-41d2-9a2e-313b253c1e2e" d="M483.1,109.64c0,2.55.07,3.66.38,4s.73.4,2.08.4c.92,0,1.68,0,2.1-.52a2.47,2.47,0,0,0,.45-1c0-.14.05-.22.16-.22s.1.06.1.26a10.84,10.84,0,0,1-.26,1.73c-.12.4-.17.47-1.09.47-1.49,0-3-.11-4.65-.11-.54,0-1.06,0-1.7,0-.19,0-.27,0-.27-.13s0-.11.13-.11a2.25,2.25,0,0,0,.52-.07c.35-.07.44-.45.51-.95.08-.73.08-2.1.08-3.76v-3c0-2.71,0-3.19,0-3.75s-.17-.86-.75-1a2.74,2.74,0,0,0-.59-.06c-.07,0-.13,0-.13-.1s.08-.14.27-.14c.78,0,1.87,0,2,0s1.35,0,1.87,0c.19,0,.28,0,.28.14s-.07.1-.14.1a3.56,3.56,0,0,0-.57.06c-.5.08-.64.38-.68,1s0,1,0,3.75Z"></path><path class="e42e7403-ae8f-41d2-9a2e-313b253c1e2e" d="M495.23,109.61c0,1.66,0,3,.09,3.76.05.5.15.88.67.95a6.38,6.38,0,0,0,.78.07c.11,0,.14,0,.14.11s-.09.13-.28.13c-.95,0-2,0-2.13,0s-1.18,0-1.7,0c-.19,0-.28,0-.28-.13s0-.11.14-.11a2.25,2.25,0,0,0,.52-.07c.35-.07.44-.45.51-.95.08-.73.08-2.1.08-3.76v-7.33c-.85,0-1.71,0-2.56,0-1.08,0-1.49.14-1.77.56a2.75,2.75,0,0,0-.29.53c-.06.14-.11.18-.18.18s-.08-.06-.08-.16.34-1.66.38-1.8.1-.33.17-.33a3.39,3.39,0,0,0,.76.21c.5,0,1.16.08,1.37.08h6.5a7.24,7.24,0,0,0,1.23-.08c.26,0,.42-.09.49-.09s.08.1.08.21c0,.52-.05,1.71-.05,1.9s-.05.23-.12.23-.12,0-.14-.3c0-.07,0-.12,0-.19-.06-.52-.47-.91-2.14-1-.72,0-1.45,0-2.18,0Z"></path><path class="e42e7403-ae8f-41d2-9a2e-313b253c1e2e" d="M504.38,106.56c0-2.71,0-3.19,0-3.75s-.12-.86-.69-1a2.88,2.88,0,0,0-.59-.06c-.12,0-.19,0-.19-.1s.08-.14.28-.14c.78,0,1.87,0,2,0s1.3,0,2.34,0c1.72,0,4.89-.16,7,2a6.22,6.22,0,0,1,1.68,4.4,7.05,7.05,0,0,1-1.88,4.89,6.87,6.87,0,0,1-5.25,2c-.74,0-1.66-.05-2.41-.1l-1.44-.11-.69,0c-.35,0-.74,0-1,0s-.28,0-.28-.13,0-.11.17-.11a3.4,3.4,0,0,0,.49-.07c.34-.07.43-.45.5-.95.09-.73.09-2.1.09-3.76Zm1.45,1.87c0,1.84,0,3.43,0,3.76a3.62,3.62,0,0,0,.19,1.32c.22.33.9.69,2.94.69a5.82,5.82,0,0,0,4.13-1.61,6.09,6.09,0,0,0,1.39-4.14,6.18,6.18,0,0,0-1.67-4.37c-1.63-1.72-3.6-2-5.67-2a4.59,4.59,0,0,0-1.12.12.32.32,0,0,0-.21.35c0,.59,0,2.36,0,3.69Z"></path><path class="e42e7403-ae8f-41d2-9a2e-313b253c1e2e" d="M146.89,50.21,79.94,1.57a8.16,8.16,0,0,0-9.62,0L3.37,50.21a8.17,8.17,0,0,0-3,9.14L26,138.06a8.14,8.14,0,0,0,7.77,5.65h82.76a8.14,8.14,0,0,0,7.77-5.65l25.58-78.71A8.16,8.16,0,0,0,146.89,50.21ZM117,30.67l5.78,4.2c-2.14.33-3,1.85-4.73,2.61-1.51.66-5,.91-6.27-.41s.45-3.18,1.62-4.06A26.32,26.32,0,0,1,117,30.67ZM73.43,10.79c.14-1.53.14-3,.14-4.58,0-.28,0-2.83-.09-4.24a6.56,6.56,0,0,1,1.65-.22A6.44,6.44,0,0,1,78.91,3l8.71,6.34a4.39,4.39,0,0,0-.91.49c-1.95,1.31-4.38,1-6.61,1.25a7.27,7.27,0,0,0-3.19.92c-.86.54-2,2.32-3.2,1.47C73,12.9,73.36,11.54,73.43,10.79Zm1.42,7.66a9.22,9.22,0,0,1,4.25-3.8C81,14,83,15.21,84.77,14.3c1.22-.63,2.38-1.36,3.61-2,.5-.26,1.75-.53,2.11-.92l22.65,16.46a3.24,3.24,0,0,0-.61.58c-1.19,1.46-2.36,1.67-4,2.32-1.53.59-1.85,2.36-3.18,3.22-1.73,1.12-4,1-6,.6a9.38,9.38,0,0,0-4-.4C93,34.7,91.76,37,89.47,37.54c-5.27,1.29-13.34,3-16.08-3.31C71.44,29.71,72.29,22.59,74.85,18.45ZM26.47,35.6a10.35,10.35,0,0,0,4.75,1.82c3.9.8,5.91.85,7.7,1.81,2.3,1.25,1.73,2.21,5.3,5.7,3.19,3.11,4.08,2.76,6.07,5.28,1.07,1.35,4.43,5.79,2.41,7.45-1.29,1.05-6-.39-7.33-1s-2.7-1.73-4.35-2.21-3.25-.26-4.57-1.2a13.51,13.51,0,0,0-4.51-2.47c-3.73-1-4.91.14-7.57-1.46-1.63-1-1.16-1.58-3.36-3-1.91-1.21-3-1.23-4.11-2.22a4.09,4.09,0,0,0-1.2-.71ZM12.68,91.47,5.17,68.34A13.21,13.21,0,0,0,9.34,71.6c4.09,2,6.92.53,10.22,3.15,2.33,1.84,3.62,5.08,5.69,7.3A31,31,0,0,0,31.13,87c1.34.87,4.41,1,5.19,2.58,1.14,2.27-4,3.14-5.19,3.37a26.17,26.17,0,0,1-4.21.67,4.43,4.43,0,0,1-2.65-1.24,5.54,5.54,0,0,0-3.09-1.27,22,22,0,0,0-3.2.52,11.94,11.94,0,0,1-4.56.1A6.5,6.5,0,0,1,12.68,91.47ZM51,139.87c-.13.81-.23,1.52-.31,2.08H33.75a6.41,6.41,0,0,1-6.11-4.44L14.22,96.21a20,20,0,0,1,4,0c5.36.55,7,3,11.89,3.18a27.33,27.33,0,0,0,6-.81c5.58-1.09,6.82-1.71,9.37-1.53,2.29.17,3.93,2.09,4.68,4.12,1.15,3.11-.07,6.45,0,9.65a25.25,25.25,0,0,0,2.1,8.85C54.85,126.2,52,133.33,51,139.87ZM53.55,84a2.85,2.85,0,0,1-2.09.91c-2.09.1-4.16-.89-6.07-1.58a14.37,14.37,0,0,1-6-4.14c-1.15-1.34-2-2.58-3.72-3.27-1.48-.6-3.1-.67-4.45-1.58-3.24-2.15-5.28-5.43-9.17-6.65-1.87-.58-3.84-.14-5.76-.62-3.11-.77-4.87-2.77-7.2-4.75a19.41,19.41,0,0,0-4.84-3.44A14.86,14.86,0,0,0,1.87,58,6.4,6.4,0,0,1,4.4,51.63l6-4.38.19.22c1.17,1.31,2.84,1.94,4.3,2.88,2.83,1.8,5.11,4.32,8.32,5.45,1.6.55,3.25.48,4.87.86,2.34.54,3.07,2.34,4.82,3.73s4,1.12,6.14,1.25a22.38,22.38,0,0,1,6.53,1.93c2.74,1.07,7.09,2.34,8,5.55.63,2.22-.85,4.6-.93,6.84a14.19,14.19,0,0,0,.54,4.35C53.56,81.48,54.49,82.86,53.55,84Zm9.36-31.09c-2.24,1.19-3.65-3.27-4.55-4.51-1.32-1.84-2.59-3.66-3.85-5.54a15.65,15.65,0,0,0-3.27-3.75c-1.43-1.12-2.9-1.1-4.53-1.76a12.88,12.88,0,0,1-2.83-1.93c-3.55-2.7-8.11-.35-12.09-1.46A6.38,6.38,0,0,1,30.05,33L57,13.42a31,31,0,0,0,2.29,4.69c1.31,1.74,3.15,2.75,4,4.91,1,2.39,0,4.43.27,6.77s1.23,4.27,1.34,6.49c.11,2.46-1.28,4.45-1.78,6.79C62.7,45.2,65.06,51.75,62.91,52.89Zm5.7-44.34c-.52,4-1,6.59-2.32,7.2-1.79.81-3.64-1.49-4.21-2.91a11.24,11.24,0,0,0-1-2.4l7.82-5.69C68.88,5.79,68.8,7.08,68.61,8.55ZM74,97.25c-1.79.09-3.15-2.16-3.49-3.64-1.45-6.32,3-13.91,6.89-18.48,2-2.29,4.18-4.82,7-6,3.48-1.48,7.32-.95,10.64-3a18.13,18.13,0,0,0,3.27-2.36c1-1,2-3.15-.5-2.37-1.93.59-3.74,1.57-5.59,2.34-5.1,2.11-11.5-.6-15.61,3.8-1.41,1.51-2.19,3.64-3.85,5-3.45,2.78-1.34-7.22-.92-8.39,1.22-3.46,5-6.79,4.59-10.61a16.49,16.49,0,0,1-.23-3c.27-3.18,3.83-3.37,6.21-4.21A12.92,12.92,0,0,1,94,48.07a6.32,6.32,0,0,0,3.59,1.34c1.86,0,3.65-.83,5.52-.63,1.31.13,2.25,1,3.46,1.42a9.33,9.33,0,0,0,2.69.48,5.55,5.55,0,0,0,2.88-.51c1.12-.85-1-1.68-1.58-1.84a17.79,17.79,0,0,1-5.13-2.13c-1.47-.86-3-.38-4.63-.38-2,0-5.31-.24-6.24-2.46a1.84,1.84,0,0,1-.11-1.56c.51-.93,2.32-.78,3.38-.74,5,.19,4.85-1.44,8.76-1.11,2.82.24,5.09,2.07,8,1.95a14.41,14.41,0,0,0,6.2-1.67c1.75-.93,3.22-2.29,4.91-3.31l10.9,7.92a11,11,0,0,0-2.87,1.09c-2.43,1.33-2.93,2.84-4.9,4.51-1.38,1.18-3.39,1.85-7.39,3.19-2.62.88-5.46,1.46-7.84,2.94-2.93,1.81-4.38,4.52-5.92,7.46A54.2,54.2,0,0,1,97.54,77.86C93.75,81.56,88,81.54,84,85.07c-2.8,2.49-4.51,5.71-6.4,8.87C76.9,95.09,75.57,97.16,74,97.25Zm48.59,40.26a6.4,6.4,0,0,1-6.11,4.44H85a12.88,12.88,0,0,0,0-2.7c-.35-3.18-2.34-5.84-3.28-8.83-1.16-3.67.25-6.13,2.07-9.28,2.37-4.11-1.3-5.2-.56-9.22.67-3.59,3.09-6.38,5.35-9.11a33.77,33.77,0,0,0,3.26-4.44c.91-1.6,1.25-3.4,2.64-4.7,2.12-2,4.56-1.76,7-2.82,4.16-1.79,4.28-4.74,8.33-9.32.93-1,6.55-7.19,13.91-9.18s14.62,1.57,18.68,4.15Zm25.57-78.7-3.66,11.27c-1.23-.78-3.71-2-4.62-2.39-1.79-.88-3.89-.78-5.66-1.68-1.53-.78-2.87-2.22-4.67-2.34-2-.14-3.79,1.24-5.53,2-1.19.53-2.55.27-3.81.47a13.14,13.14,0,0,0-3.85,1.51c-.76.38-1.75.94-2.45.15s.26-2.12.87-2.78c.93-1,1.52-2.21,2.43-3.22,2.26-2.5,5.88-3.64,9.07-4.33a15.6,15.6,0,0,0,5.94-2.18c1.61-1.18,2.06-3.39,3.4-4.85a10.69,10.69,0,0,1,4.58-2.92l5.63,4.09A6.4,6.4,0,0,1,148.19,58.81Z"></path></g></g></svg> 