<?xml version="1.0" encoding="UTF-8"?> <svg xmlns="http://www.w3.org/2000/svg" viewBox="0 0 92 87.79"><defs><style>.a{fill:none;stroke:#fff;stroke-linecap:round;stroke-linejoin:round;stroke-width:4px;}</style></defs><title>Quote</title><path class="a" d="M46,2C21.7,2,2,19,2,40,2,52.5,9,63.59,19.78,70.52a41,41,0,0,1-1.44,7.92,20.9,20.9,0,0,1-4.27,7.35,30.72,30.72,0,0,0,11.36-2.3,26.93,26.93,0,0,0,8.94-6.84A50.8,50.8,0,0,0,46,78c24.3,0,44-17,44-38S70.3,2,46,2Z"></path><path class="a" d="M52.76,26.76A9.12,9.12,0,0,0,48,25.69a7.57,7.57,0,0,0-6.16,3.7c-2,3.63-.24,9.2,0,10.37.86,3.77.63,5.64-.18,7.46-1.92,4.35-4.09,5.88-5.8,6.83,5-.07,18.6-.22,18.6-.22"></path><line class="a" x1="35.54" y1="40.04" x2="50.16" y2="40.04"></line></svg> 